<?xml version="1.0" encoding="UTF-8"?>
<svg xmlns="http://www.w3.org/2000/svg" width="395" height="340" viewBox="0 0 395 340">
<rect width="100%" height="100%" fill="white"/>
<line x1="55" y1="285" x2="370" y2="285" stroke="lightgray" stroke-width="1"/>
<text x="47" y="290" font-size="14" text-anchor="end" font-family="sans-serif">0%</text>
<line x1="55" y1="259" x2="370" y2="259" stroke="lightgray" stroke-width="1"/>
<text x="47" y="264" font-size="14" text-anchor="end" font-family="sans-serif">10%</text>
<line x1="55" y1="233" x2="370" y2="233" stroke="lightgray" stroke-width="1"/>
<text x="47" y="238" font-size="14" text-anchor="end" font-family="sans-serif">20%</text>
<line x1="55" y1="207" x2="370" y2="207" stroke="lightgray" stroke-width="1"/>
<text x="47" y="212" font-size="14" text-anchor="end" font-family="sans-serif">30%</text>
<line x1="55" y1="181" x2="370" y2="181" stroke="lightgray" stroke-width="1"/>
<text x="47" y="186" font-size="14" text-anchor="end" font-family="sans-serif">40%</text>
<line x1="55" y1="155" x2="370" y2="155" stroke="lightgray" stroke-width="1"/>
<text x="47" y="160" font-size="14" text-anchor="end" font-family="sans-serif">50%</text>
<line x1="55" y1="129" x2="370" y2="129" stroke="lightgray" stroke-width="1"/>
<text x="47" y="134" font-size="14" text-anchor="end" font-family="sans-serif">60%</text>
<line x1="55" y1="103" x2="370" y2="103" stroke="lightgray" stroke-width="1"/>
<text x="47" y="108" font-size="14" text-anchor="end" font-family="sans-serif">70%</text>
<line x1="55" y1="77" x2="370" y2="77" stroke="lightgray" stroke-width="1"/>
<text x="47" y="82" font-size="14" text-anchor="end" font-family="sans-serif">80%</text>
<line x1="55" y1="51" x2="370" y2="51" stroke="lightgray" stroke-width="1"/>
<text x="47" y="56" font-size="14" text-anchor="end" font-family="sans-serif">90%</text>
<line x1="55" y1="25" x2="370" y2="25" stroke="lightgray" stroke-width="1"/>
<text x="47" y="30" font-size="14" text-anchor="end" font-family="sans-serif">100%</text>
<line x1="55" y1="25" x2="55" y2="285" stroke="black" stroke-width="2"/>
<line x1="55" y1="285" x2="370" y2="285" stroke="black" stroke-width="2"/>
<rect x="85" y="186.2" width="65" height="98.8" fill="#c0392b"/>
<text x="117.5" y="313" font-size="18" text-anchor="middle" font-family="serif">Учёба</text>
<rect x="180" y="196.6" width="65" height="88.4" fill="#2980b9"/>
<text x="212.5" y="313" font-size="18" text-anchor="middle" font-family="serif">Сон</text>
<rect x="275" y="212.2" width="65" height="72.8" fill="#27ae60"/>
<text x="307.5" y="313" font-size="18" text-anchor="middle" font-family="serif">Отдых</text>

</svg>
